<svg width="30" height="30" viewBox="0 0 30 30" fill="none" xmlns="http://www.w3.org/2000/svg">
<path fill-rule="evenodd" clip-rule="evenodd" d="M15 30C23.2843 30 30 23.2843 30 15C30 11.9332 29.0796 9.08128 27.5 6.70551L14.5 20.5L6.5 12.5L9.5 9.5L14.5 14.5L25 3.81947C22.3462 1.44427 18.8418 0 15 0C6.71573 0 0 6.71573 0 15C0 23.2843 6.71573 30 15 30Z" fill="#3BB54A"/>
<path d="M25 3.81947L14.5 14.5L9.5 9.5L6.5 12.5L14.5 20.5L27.5 6.70551C26.7915 5.63985 25.9503 4.66997 25 3.81947Z" fill="white"/>
</svg>
